<?xml version="1.0" encoding="utf-8"?>
<!-- Generator: Adobe Illustrator 24.3.0, SVG Export Plug-In . SVG Version: 6.00 Build 0)  -->
<svg version="1.1" xmlns="http://www.w3.org/2000/svg" xmlns:xlink="http://www.w3.org/1999/xlink" x="0px" y="0px"
	 viewBox="0 0 1000.3 1006.2" style="enable-background:new 0 0 1000.3 1006.2;" xml:space="preserve">
<style type="text/css">
	.st0{fill:#F7F7F7;}
	.st1{opacity:0.46;}
	.st2{fill:#FFFFFF;}
	.st3{fill:#EA610E;}
	.st4{fill:#E4E4F9;}
	.st5{fill:#232323;}
	.st6{fill:#E2E2E2;}
	.st7{fill:#FC6681;}
	.st8{fill:#BDD4EC;}
	.st9{fill:#EDEDF9;}
	.st10{fill:#DCDCEF;}
	.st11{opacity:0.43;fill:#FFFFFF;}
	.st12{fill:#BF4F10;}
	.st13{fill:#FF948C;}
	.st14{fill:#EF7E7B;}
	.st15{fill:#06005A;}
	.st16{opacity:0.51;fill:#F96662;}
	.st17{fill:#F96662;}
	.st18{fill:#ECEBF2;}
</style>
<g id="BACKGROUND">
</g>
<g id="OBJECTS">
	<g>
		<g>
			<path class="st0" d="M346.8,843.6c-76,6.8-146-43.5-194.8-102.3c-47.2-56.9-83-127.9-78.4-201.7c3.1-49.6,24.9-97.8,60.2-132.8
				c25.3-25.1,59.7-43.9,95.1-40.3c42.6,4.4,77.2,39.8,119.8,44.4c43.4,4.7,82.6-23.1,119.8-45.8c33.5-20.5,70-38.1,109.2-41.2
				c39.1-3.1,81.4,10.7,104.2,42.6c17.8,24.9,22.3,58.1,43.1,80.5c21.7,23.4,55.6,29.6,85.8,39.9c51.5,17.5,100.5,54.9,113.1,107.8
				c11.7,49.5-10.9,101.4-42.7,141.1c-60.2,75.3-155.6,121-252,120.7c-19.8-0.1-40.1-2.1-58-10.4"/>
		</g>
		<g>
			<g>
				<path class="st0" d="M778.8,293.1c-128.6,1.3-170.7-16.4-184.6-35c-13.9-18.5-21.8-42-19.7-65.1c1.8-19.9,12.9-40.7,32.1-46.2
					c15.2-4.3,32.4,2.5,42.4,14.8c10.9,13.4,14.4,32.4,27.6,43.5c-2.7-22.9,17.8-45.7,40.9-45.4c23.1,0.3,43,23.8,39.6,46.6
					c8.5-13.1,24.8-21.7,40-18.3c15.3,3.4,26.8,20.6,21.7,35.4c22-12.9,52.5-9,70.6,9.1c3.6,3.6,6.8,7.8,8.3,12.7
					c3,10.1-2,21.3-10,28.1c-8,6.9-18.4,10.2-28.6,12.8C832.9,292.7,805.7,295.1,778.8,293.1"/>
			</g>
			<g>
				<path class="st0" d="M229.5,305.6c-19.5-0.4-38.7-9.4-51.5-24.1c-6.6-7.6-11.7-17-12.3-27c-0.5-10.1,4.2-20.8,13.1-25.5
					c12.9-6.8,28.4,0.2,41.2,7.3c0.6-8.5-2.8-16.7-5.8-24.6c-3.2-8.5-6.1-17.2-6.4-26.3c-0.4-12,4.2-24.2,12.8-32.5
					c8.6-8.4,21.2-12.6,33-10.5c13.4,2.3,24.6,12.3,30.9,24.3c6.3,12,8.2,25.9,8.2,39.5c5.3-11.6,15.7-21.1,28.1-23.8
					s26.6,2.1,33.6,12.7c7,10.6,5.5,26.5-4.4,34.5c8.4-2.2,17.2-3.6,25.8-2.1c8.6,1.5,16.9,6.4,20.9,14.1c4.1,7.7,2.9,18.3-3.9,23.8
					c6.8-1.3,14-1.1,20.7,0.6c4.5,1.1,9.2,3.2,11.3,7.3c2,3.9,1.1,8.9-1.3,12.6c-2.4,3.7-6.1,6.4-9.8,8.7
					C398.7,303.6,359,310.1,229.5,305.6"/>
			</g>
			<g>
				<path class="st0" d="M826.5,426.1c-9.1-0.2-18.1-4.4-24.1-11.3c-3.1-3.6-5.5-7.9-5.7-12.7c-0.3-4.7,2-9.7,6.1-11.9
					c6-3.2,13.3,0.1,19.3,3.4c0.3-4-1.3-7.8-2.7-11.5c-1.5-4-2.9-8.1-3-12.3c-0.2-5.6,2-11.3,6-15.2c4-3.9,9.9-5.9,15.4-4.9
					c6.3,1.1,11.5,5.8,14.5,11.4c2.9,5.6,3.8,12.1,3.8,18.5c2.5-5.4,7.3-9.9,13.1-11.1c5.8-1.3,12.4,1,15.7,5.9
					c3.3,5,2.6,12.4-2.1,16.2c3.9-1,8.1-1.7,12.1-1c4,0.7,7.9,3,9.8,6.6c1.9,3.6,1.4,8.6-1.8,11.1c3.2-0.6,6.5-0.5,9.7,0.3
					c2.1,0.5,4.3,1.5,5.3,3.4c0.9,1.8,0.5,4.1-0.6,5.9c-1.1,1.7-2.8,3-4.6,4C905.6,425.2,887.1,428.2,826.5,426.1"/>
			</g>
		</g>
		<g>
			<g>
				<path d="M124.1,864.3c5.7,0,11.4,0,17.1,0c15.3,0,30.7,0,46,0c22.7,0,45.5,0,68.2,0c27.7,0,55.5,0,83.2,0c30.3,0,60.6,0,90.9,0
					c30.8,0,61.6,0,92.3,0c28.5,0,57,0,85.5,0c24.2,0,48.3,0,72.5,0c17.4,0,34.8,0,52.1,0c8.2,0,16.4,0.2,24.6,0c0.4,0,0.7,0,1.1,0
					c2.5,0,2.5-4.6,0-4.6c-5.7,0-11.4,0-17.1,0c-15.3,0-30.7,0-46,0c-22.7,0-45.5,0-68.2,0c-27.7,0-55.5,0-83.2,0
					c-30.3,0-60.6,0-90.9,0c-30.8,0-61.6,0-92.3,0c-28.5,0-57,0-85.5,0c-24.2,0-48.3,0-72.5,0c-17.4,0-34.8,0-52.1,0
					c-8.2,0-16.4-0.2-24.6,0c-0.4,0-0.7,0-1.1,0C121.6,859.7,121.6,864.3,124.1,864.3L124.1,864.3z"/>
			</g>
			<g>
				<path d="M795.3,864.3c5.6,0,11.2,0,16.8,0c8.9,0,17.8,0,26.8,0c2,0,4.1,0,6.1,0c2.2,0,2.2-4.6,0-4.6c-5.6,0-11.2,0-16.8,0
					c-8.9,0-17.8,0-26.8,0c-2,0-4.1,0-6.1,0C793.1,859.7,793.1,864.3,795.3,864.3L795.3,864.3z"/>
			</g>
		</g>
		<g class="st1">
			<path class="st2" d="M530.9,267.3c3,0,3-4.7,0-4.7C527.8,262.6,527.8,267.3,530.9,267.3L530.9,267.3z"/>
		</g>
		<g>
			<g>
				<g>
					<g>
						<g>
							<path class="st3" d="M364.4,567.7c-10.5-5.7-20.4-12.3-29.8-19.7c-9.2-7.3-17.9-15.4-25.8-24.1c-8-8.8-15.3-18.3-21.9-28.2
								c-6.5-9.9-12.1-20.3-16.9-31.2c-4.8-10.8-8.7-22-11.6-33.5c-0.4-1.4-0.7-2.9-1-4.3c-0.2-0.7-1.1-0.3-1,0.3
								c2.7,11.7,6.4,23.1,11,34.1c4.6,11,10.1,21.5,16.4,31.6c6.3,10.1,13.4,19.6,21.2,28.6c7.9,9,16.5,17.4,25.7,24.9
								c9.2,7.5,19,14.3,29.3,20.2c1.3,0.7,2.6,1.4,3.9,2.2C364.5,569,364.9,568.1,364.4,567.7L364.4,567.7z"/>
						</g>
						<g>
							<path class="st3" d="M259.5,435.2c-7.3-3.3-14.9-13.2-16.4-22.8c-0.4-2.7-0.6-5.5,0-8.2c0.6-2.8,2.1-5.5,4.2-6.8
								c2.1-1.4,4.6-1.3,6.7-0.4c5.3,2.4,8.3,9.3,8.7,16.5C263.1,420.6,261.4,428,259.5,435.2"/>
						</g>
						<g>
							<path class="st3" d="M268.6,460.5c-7.1,3.8-19.5,3.9-28.1-0.6c-2.4-1.3-4.7-2.8-6.6-5c-1.8-2.2-3.1-4.9-3-7.4
								c0.2-2.6,1.8-4.5,3.8-5.6c5.1-2.8,12.4-1,18.4,2.9C259.2,448.8,264.1,454.7,268.6,460.5"/>
						</g>
						<g>
							<path class="st3" d="M267.9,461.7c-2.5-7.6-0.4-19.9,5.6-27.6c1.7-2.1,3.6-4.1,6.1-5.6c2.4-1.4,5.4-2.2,7.8-1.6
								c2.5,0.6,4.1,2.5,4.8,4.7c1.9,5.5-1.2,12.4-6.2,17.6C281.1,454.4,274.5,458.2,267.9,461.7"/>
						</g>
						<g>
							<path class="st3" d="M287.2,495.3c-6.4,4.9-18.7,6.9-27.9,3.7c-2.5-0.9-5.1-2.1-7.2-3.9c-2.1-1.8-3.8-4.4-4.1-6.9
								c-0.2-2.6,1.1-4.7,2.9-6.1c4.6-3.5,12.1-2.9,18.6,0.1C276,485.1,281.8,490.2,287.2,495.3"/>
						</g>
						<g>
							<path class="st3" d="M286.6,496.5c-3.6-7.2-3.5-19.6,1.3-28.1c1.3-2.3,3-4.6,5.2-6.4c2.2-1.8,5-3,7.5-2.8
								c2.6,0.2,4.4,1.9,5.5,3.9c2.7,5.1,0.7,12.4-3.4,18.3C298.6,487.3,292.6,492.1,286.6,496.5"/>
						</g>
						<g>
							<path class="st3" d="M312.2,527.6c-5.7,5.7-17.5,9.4-27.1,7.6c-2.6-0.5-5.3-1.3-7.7-2.9c-2.4-1.5-4.4-3.8-5-6.3
								c-0.6-2.5,0.4-4.8,2-6.4c4-4.2,11.6-4.6,18.5-2.5C299.7,519.1,306.1,523.3,312.2,527.6"/>
						</g>
						<g>
							<path class="st3" d="M311.8,528.9c-4.6-6.6-6.2-18.9-2.7-28c1-2.5,2.3-5,4.2-7.1c1.9-2.1,4.6-3.7,7-3.8
								c2.6-0.1,4.7,1.2,6,3.1c3.4,4.7,2.4,12.2-0.8,18.6C322.4,518.1,317.1,523.7,311.8,528.9"/>
						</g>
						<g>
							<path class="st4" d="M340.2,552.3c-3.5,5.4-12.2,10.2-20,10.3c-2.1,0-4.4-0.2-6.5-1c-2.1-0.8-4.1-2.3-4.9-4.1
								c-0.9-1.9-0.5-3.8,0.5-5.4c2.5-3.9,8.3-5.5,14-5C329.1,547.7,334.7,549.9,340.2,552.3"/>
						</g>
						<g>
							<path class="st4" d="M340.1,553.4c-4.7-4.4-7.9-13.8-6.7-21.5c0.3-2.1,1-4.3,2.1-6.2c1.2-1.9,3-3.6,4.9-4.1
								c2-0.5,3.8,0.2,5.2,1.4c3.4,3.1,3.9,9.1,2.4,14.7C346.6,543.2,343.4,548.4,340.1,553.4"/>
						</g>
					</g>
					<g>
						<g>
							<path class="st5" d="M345.3,780.7c-8.2,8.7-19.4,14.3-31.1,16.9c-11.7,2.6-23.9,2.3-35.7,0.6c-36.1-5.2-70-24.3-93.1-52.5
								c4-4.4,9.8-6.9,15.4-8.9c21.5-7.4,45-9,67.3-4.5c22.3,4.4,43.4,14.9,60.4,29.9C333.3,766.5,342.3,775.1,345.3,780.7"/>
						</g>
						<g>
							<g>
								<path class="st2" d="M196.1,746.7c18.9,3.2,37.5,8.2,56,13.4c18.5,5.2,36.9,10.7,55.6,15.1c10.5,2.4,21,4.5,31.6,6
									c1,0.1,1.2-1.3,0.3-1.5c-19-2.6-37.7-7.2-56.2-12.3c-18.5-5.1-36.9-10.7-55.6-15.4c-10.4-2.6-20.9-5-31.5-6.8
									C195.5,745.1,195.2,746.6,196.1,746.7L196.1,746.7z"/>
							</g>
							<g>
								<path class="st2" d="M315,775.8c-5.6,2.9-11.3,5.4-17.2,7.5c-5.9,2.1-12,3.8-18.1,5.1c-3.5,0.7-7,1.3-10.5,1.7
									c-1,0.1-0.8,1.6,0.1,1.5c6.3-0.8,12.6-2,18.8-3.7c6.1-1.7,12.2-3.7,18-6.2c3.3-1.4,6.6-3,9.8-4.6c0.4-0.2,0.4-0.7,0.2-1
									C315.8,775.6,315.3,775.6,315,775.8L315,775.8z"/>
							</g>
							<g>
								<path class="st2" d="M295.1,770.3c-3.1-5.2-7.2-9.7-11.7-13.7c-4.6-4-9.6-7.5-14.8-10.8c-2.9-1.9-5.9-3.6-8.9-5.4
									c-0.8-0.5-1.5,0.8-0.7,1.3c5.2,3.1,10.4,6.2,15.3,9.7c4.9,3.4,9.5,7.3,13.5,11.7c2.2,2.5,4.3,5.2,6,8
									C294.4,772,295.6,771.1,295.1,770.3L295.1,770.3z"/>
							</g>
							<g>
								<path class="st2" d="M262,761.6c-7.9,3-16.1,4.9-24.5,5.7c-2.3,0.2-4.7,0.3-7.1,0.4c-1,0-0.9,1.5,0.1,1.5
									c8.5-0.2,16.9-1.5,25.1-3.8c2.3-0.7,4.6-1.4,6.9-2.3C263.4,762.7,262.9,761.3,262,761.6L262,761.6z"/>
							</g>
							<g>
								<path class="st2" d="M239.3,754.7c-5.5-6.3-12.3-11.3-19.8-14.9c-2.1-1-4.3-1.9-6.5-2.6c-0.9-0.3-1.4,1.1-0.5,1.4
									c7.7,2.6,14.8,6.7,20.8,12.2c1.7,1.6,3.3,3.2,4.9,5C238.8,756.5,239.9,755.5,239.3,754.7L239.3,754.7z"/>
							</g>
						</g>
					</g>
					<g>
						<g>
							<path class="st6" d="M613.4,826.1c-3.4-20.7,0.8-42.2,9.7-61.3c8.9-19,22.2-35.7,37.2-50.4c45.7-44.7,108.3-71.5,172.2-73.7
								c1.9,10.3-0.7,21-4.1,30.9c-12.6,37.8-35.4,72.1-65.3,98.5c-29.9,26.3-66.9,44.5-106,52.2
								C646.1,824.4,624.5,827.9,613.4,826.1"/>
						</g>
						<g>
							<g>
								<path class="st5" d="M819.7,654.6c-24.6,22.9-51.3,43.5-78.3,63.7c-27,20.2-54.2,39.9-80.2,61.3
									c-14.5,11.9-28.6,24.4-42,37.7c-1.2,1.2,0.5,3.2,1.7,2c23.9-23.7,50.1-44.8,76.9-65.1c26.8-20.4,54.2-40,80.6-60.9
									c14.8-11.7,29.2-23.8,43-36.7C822.6,655.5,820.9,653.5,819.7,654.6L819.7,654.6z"/>
							</g>
							<g>
								<path class="st5" d="M652.7,789.1c1.9-10.8,4.5-21.5,7.9-32c3.4-10.5,7.4-20.7,12.2-30.6c2.7-5.6,5.6-11.1,8.8-16.5
									c0.8-1.5-1.3-2.9-2.2-1.4c-5.6,9.6-10.6,19.7-14.9,30c-4.2,10.3-7.8,20.9-10.5,31.7c-1.6,6.1-2.9,12.3-4,18.6
									c-0.1,0.7,0.6,1.3,1.2,1.4C652.1,790.4,652.6,789.8,652.7,789.1L652.7,789.1z"/>
							</g>
							<g>
								<path class="st5" d="M681.5,767.3c10.5,1.2,21.2,0.4,31.5-1.7c10.5-2.1,20.8-5.4,30.8-9.1c5.7-2.1,11.4-4.3,17-6.6
									c1.6-0.6,0.4-3-1.2-2.4c-9.8,3.9-19.7,7.8-29.8,11c-10,3.1-20.3,5.5-30.7,6.4c-5.8,0.5-11.7,0.4-17.6-0.3
									C679.9,764.5,679.8,767.1,681.5,767.3L681.5,767.3z"/>
							</g>
							<g>
								<path class="st5" d="M728.8,730.5c4.3-14.1,10.4-27.6,18.2-40.1c2.2-3.5,4.5-6.9,7-10.2c1-1.4-1.2-2.8-2.2-1.4
									c-8.8,12-16,25.1-21.4,39c-1.5,3.9-2.9,7.9-4.1,12C725.8,731.3,728.3,732.1,728.8,730.5L728.8,730.5z"/>
							</g>
							<g>
								<path class="st5" d="M762.6,706.2c14.6-1,28.9-5,41.9-11.7c3.7-1.9,7.2-4,10.6-6.3c1.4-0.9-0.1-3.1-1.5-2.2
									c-11.8,7.9-25.1,13.4-39.1,16c-4,0.7-8,1.2-12.1,1.5C760.7,703.7,760.9,706.3,762.6,706.2L762.6,706.2z"/>
							</g>
						</g>
					</g>
					<g>
						<g>
							<path class="st3" d="M353.2,536.8c-3.2-11.5-5.4-23.2-6.7-35.1c-1.2-11.7-1.5-23.5-0.8-35.3c0.7-11.9,2.4-23.7,5-35.4
								c2.6-11.5,6.1-22.9,10.5-33.9c4.4-11,9.7-21.6,15.9-31.7c0.8-1.3,1.6-2.5,2.4-3.7c0.4-0.6-0.6-1-0.9-0.5
								c-6.5,10.1-12.1,20.7-16.7,31.7c-4.6,10.9-8.4,22.2-11.2,33.8c-2.8,11.5-4.7,23.3-5.6,35.2c-0.9,11.9-0.9,23.9,0.1,35.8
								c1,11.8,3,23.6,6,35.1c0.4,1.4,0.8,2.9,1.2,4.3C352.4,537.8,353.4,537.4,353.2,536.8L353.2,536.8z"/>
						</g>
						<g>
							<path class="st3" d="M374.9,369.2c-2.7-7.6-0.9-19.9,4.9-27.7c1.6-2.2,3.5-4.2,5.9-5.7s5.4-2.3,7.8-1.8
								c2.5,0.5,4.2,2.4,4.9,4.6c2,5.4-0.9,12.4-5.7,17.7C388,361.6,381.4,365.6,374.9,369.2"/>
						</g>
						<g>
							<path class="st3" d="M363.2,393.4c-7.7-2.4-16.4-11.2-19.2-20.6c-0.8-2.6-1.3-5.4-1-8.2c0.3-2.8,1.4-5.7,3.3-7.3
								c1.9-1.7,4.4-1.9,6.6-1.2c5.5,1.7,9.4,8.2,10.7,15.2C365,378.5,364.2,386.1,363.2,393.4"/>
						</g>
						<g>
							<path class="st3" d="M361.9,393.7c3.7-7.1,13.9-14.2,23.6-15.2c2.7-0.3,5.5-0.3,8.2,0.5c2.7,0.8,5.3,2.4,6.6,4.5
								c1.3,2.2,1,4.7,0,6.7c-2.6,5.2-9.7,7.8-16.9,7.9C376.3,398.1,368.9,396,361.9,393.7"/>
						</g>
						<g>
							<path class="st3" d="M351.2,430.9c-7.9-1.2-17.9-8.6-22.1-17.4c-1.1-2.4-2.1-5.1-2.2-7.9c-0.2-2.8,0.5-5.8,2.1-7.7
								c1.7-2,4.1-2.5,6.4-2.2c5.7,0.8,10.5,6.6,12.9,13.4C350.7,415.9,351.1,423.5,351.2,430.9"/>
						</g>
						<g>
							<path class="st3" d="M350,431.4c2.6-7.6,11.6-16.1,21-18.7c2.6-0.7,5.4-1.1,8.2-0.8c2.8,0.3,5.6,1.5,7.2,3.4
								c1.6,2,1.7,4.5,1,6.7c-1.8,5.5-8.4,9.2-15.5,10.3C364.9,433.6,357.3,432.6,350,431.4"/>
						</g>
						<g>
							<path class="st3" d="M345.6,471.4c-8-0.1-19-6-24.3-14.1c-1.5-2.2-2.8-4.8-3.3-7.5c-0.6-2.8-0.3-5.8,1-7.9
								c1.4-2.2,3.7-3.1,6-3.1c5.8,0,11.3,5.1,14.7,11.5C342.9,456.6,344.4,464.1,345.6,471.4"/>
						</g>
						<g>
							<path class="st3" d="M344.4,472.1c1.5-7.9,9.2-17.6,18.2-21.4c2.5-1.1,5.2-1.9,8-1.9c2.8-0.1,5.8,0.7,7.6,2.4
								c1.9,1.7,2.4,4.2,2,6.4c-1,5.7-7,10.3-13.9,12.4C359.5,472.1,351.8,472.2,344.4,472.1"/>
						</g>
						<g>
							<path class="st7" d="M347.4,508.7c-6.3,1.3-15.8-1.6-21.3-7.1c-1.5-1.5-2.9-3.3-3.8-5.4c-0.9-2.1-1.2-4.5-0.5-6.4
								c0.7-1.9,2.4-3,4.2-3.4c4.5-1,9.7,2.1,13.4,6.6C342.9,497.5,345.3,503.2,347.4,508.7"/>
						</g>
						<g>
							<path class="st7" d="M346.6,509.4c-0.1-6.4,4.3-15.3,10.7-19.8c1.8-1.2,3.7-2.3,5.9-2.8c2.2-0.5,4.7-0.4,6.4,0.6
								c1.8,1,2.5,2.9,2.6,4.7c0.1,4.6-3.8,9.2-8.8,12C358.4,507,352.4,508.3,346.6,509.4"/>
						</g>
					</g>
					<g>
						<g>
							<path class="st3" d="M646.5,699.8c3.6-11.4,8.1-22.4,13.6-33c5.4-10.5,11.7-20.5,18.7-30c7.1-9.6,15-18.6,23.5-26.9
								c8.5-8.2,17.6-15.8,27.3-22.6c9.7-6.8,20-12.7,30.7-17.8c1.3-0.6,2.7-1.2,4-1.8c0.6-0.3,0.1-1.2-0.5-0.9
								c-10.9,4.9-21.4,10.7-31.4,17.3c-9.9,6.6-19.2,14-27.9,22.1c-8.7,8.1-16.7,16.9-24,26.3c-7.3,9.5-13.9,19.5-19.6,30
								c-5.6,10.4-10.4,21.4-14.2,32.6c-0.5,1.4-0.9,2.8-1.4,4.2C645.3,700.2,646.3,700.4,646.5,699.8L646.5,699.8z"/>
						</g>
						<g>
							<path class="st3" d="M756.5,571.5c1.9-7.8,10.1-17.1,19.2-20.5c2.5-0.9,5.3-1.6,8.1-1.5c2.8,0.1,5.8,1,7.5,2.8
								c1.8,1.8,2.1,4.3,1.6,6.5c-1.3,5.6-7.5,9.9-14.5,11.7C771.5,572.3,763.9,572,756.5,571.5"/>
						</g>
						<g>
							<path class="st3" d="M733.3,585.3c-5.1-6.2-7.6-18.4-4.8-27.7c0.8-2.6,1.9-5.2,3.6-7.4c1.8-2.2,4.3-4,6.7-4.3
								c2.6-0.3,4.7,0.9,6.2,2.6c3.7,4.4,3.4,12,0.6,18.6C743,573.8,738.2,579.7,733.3,585.3"/>
						</g>
						<g>
							<path class="st3" d="M732.1,584.8c7-3.9,19.4-4.2,28.1,0.2c2.4,1.2,4.8,2.8,6.6,4.9c1.9,2.1,3.2,4.9,3.1,7.4
								c-0.1,2.6-1.7,4.5-3.7,5.6c-5,2.9-12.4,1.2-18.4-2.7C741.7,596.4,736.7,590.6,732.1,584.8"/>
						</g>
						<g>
							<path class="st3" d="M702.8,610.2c-6-5.3-10.3-17-9-26.7c0.4-2.7,1.1-5.4,2.5-7.9c1.4-2.5,3.6-4.6,6-5.3
								c2.5-0.7,4.8,0.2,6.5,1.7c4.4,3.8,5.2,11.3,3.5,18.3C710.6,597.3,706.8,603.9,702.8,610.2"/>
						</g>
						<g>
							<path class="st3" d="M701.5,609.8c6.3-5,18.5-7.1,27.8-4.1c2.6,0.8,5.1,2,7.3,3.8c2.2,1.8,3.9,4.4,4.2,6.8
								c0.3,2.6-1,4.7-2.8,6.1c-4.5,3.6-12,3.1-18.6,0.2C712.8,619.8,706.9,614.9,701.5,609.8"/>
						</g>
						<g>
							<path class="st3" d="M675.9,640.9c-6.7-4.5-12.6-15.4-12.6-25.1c0-2.7,0.3-5.5,1.3-8.1c1-2.6,2.9-5.1,5.2-6.1
								c2.3-1.1,4.8-0.5,6.7,0.7c4.8,3.2,6.7,10.5,6,17.6C681.8,627.1,679,634.2,675.9,640.9"/>
						</g>
						<g>
							<path class="st3" d="M674.6,640.8c5.6-5.8,17.4-9.7,27-8c2.6,0.5,5.4,1.3,7.8,2.8c2.4,1.5,4.5,3.8,5.1,6.2
								c0.6,2.5-0.3,4.8-1.9,6.5c-4,4.2-11.5,4.7-18.4,2.8C687.2,649.1,680.7,645,674.6,640.8"/>
						</g>
						<g>
							<path class="st8" d="M657,673.1c-6-2.4-12.4-10-14-17.6c-0.4-2.1-0.7-4.4-0.3-6.6c0.4-2.2,1.5-4.4,3.1-5.6
								c1.7-1.2,3.7-1.2,5.4-0.5c4.3,1.7,7,7.1,7.6,12.8C659.4,661.3,658.3,667.3,657,673.1"/>
						</g>
						<g>
							<path class="st3" d="M655.9,673.3c3.4-5.4,12-10.4,19.8-10.7c2.1-0.1,4.4,0.1,6.5,0.9c2.1,0.8,4.1,2.2,5,4
								c0.9,1.8,0.5,3.8-0.4,5.4c-2.4,3.9-8.2,5.6-13.9,5.2C667.1,677.7,661.4,675.6,655.9,673.3"/>
						</g>
					</g>
					<g>
						<g>
							<path class="st3" d="M298.8,700.7c-11.7,2.5-23.5,3.9-35.4,4.3c-11.8,0.4-23.6-0.1-35.3-1.6c-11.8-1.5-23.5-3.9-35-7.3
								c-11.3-3.3-22.4-7.6-33.1-12.7c-10.7-5.1-20.9-11.2-30.5-18c-1.2-0.9-2.4-1.7-3.6-2.6c-0.5-0.4-1.1,0.5-0.5,0.9
								c9.6,7.1,19.8,13.4,30.5,18.8c10.6,5.4,21.6,9.8,33,13.4c11.3,3.6,22.9,6.2,34.7,8c11.8,1.7,23.8,2.5,35.8,2.3
								c11.9-0.2,23.7-1.4,35.4-3.6c1.4-0.3,2.9-0.6,4.3-0.9C299.7,701.5,299.5,700.5,298.8,700.7L298.8,700.7z"/>
						</g>
						<g>
							<path class="st3" d="M133,667.8c-7.7,2.2-19.9-0.4-27.3-6.7c-2-1.7-4-3.8-5.3-6.3s-2-5.5-1.3-7.9c0.7-2.5,2.7-4,4.9-4.6
								c5.6-1.6,12.3,1.7,17.3,6.9C126.3,654.4,129.9,661.1,133,667.8"/>
						</g>
						<g>
							<path class="st3" d="M156.4,681.2c-2.9,7.5-12.3,15.6-21.8,17.8c-2.6,0.6-5.4,0.9-8.2,0.5c-2.8-0.4-5.6-1.7-7.1-3.7
								c-1.6-2.1-1.6-4.6-0.8-6.7c2-5.4,8.8-8.8,15.9-9.7C141.6,678.4,149.1,679.7,156.4,681.2"/>
						</g>
						<g>
							<path class="st3" d="M156.6,682.5c-6.9-4.2-13.2-14.8-13.6-24.6c-0.1-2.7,0.1-5.5,1-8.2c0.9-2.7,2.7-5.2,4.9-6.3
								c2.3-1.2,4.8-0.7,6.7,0.4c5,3,7.1,10.2,6.7,17.4C161.9,668.4,159.4,675.6,156.6,682.5"/>
						</g>
						<g>
							<path class="st3" d="M193,695.6c-1.7,7.8-9.7,17.3-18.8,20.9c-2.5,1-5.2,1.7-8.1,1.7c-2.8,0-5.8-0.9-7.6-2.6
								c-1.8-1.8-2.2-4.3-1.8-6.5c1.2-5.7,7.3-10,14.2-12C178,695.1,185.6,695.2,193,695.6"/>
						</g>
						<g>
							<path class="st3" d="M193.4,696.9c-7.4-3.1-15.3-12.7-17.2-22.2c-0.5-2.6-0.8-5.5-0.3-8.2c0.5-2.8,1.9-5.5,3.9-7
								c2.1-1.5,4.6-1.4,6.7-0.6c5.4,2.2,8.6,9,9.3,16.1C196.6,682.2,195.1,689.7,193.4,696.9"/>
						</g>
						<g>
							<path class="st3" d="M233.1,703.9c-0.6,8-7.2,18.5-15.7,23.3c-2.3,1.3-4.9,2.4-7.7,2.8c-2.8,0.4-5.8-0.1-7.9-1.5
								c-2.1-1.5-2.8-3.9-2.7-6.2c0.4-5.8,5.8-11,12.4-13.9C218.1,705.6,225.7,704.6,233.1,703.9"/>
						</g>
						<g>
							<path class="st3" d="M233.6,705.2c-7.8-2-17-10.4-20.2-19.6c-0.9-2.5-1.5-5.3-1.4-8.1c0.1-2.8,1.1-5.7,2.9-7.5
								c1.9-1.8,4.3-2.1,6.6-1.5c5.6,1.4,9.8,7.7,11.5,14.7C234.6,690.1,234.3,697.8,233.6,705.2"/>
						</g>
						<g>
							<path class="st3" d="M270.4,704.6c0.8,6.4-2.6,15.7-8.5,20.8c-1.6,1.4-3.5,2.7-5.6,3.5c-2.1,0.8-4.6,0.9-6.4,0.1
								c-1.9-0.8-2.8-2.6-3.1-4.4c-0.6-4.6,2.8-9.5,7.4-12.9C259,708.3,264.7,706.3,270.4,704.6"/>
						</g>
						<g>
							<path class="st8" d="M271,705.5c-6.4-0.3-15-5.3-19-12c-1.1-1.8-2.1-3.9-2.4-6.1c-0.4-2.2-0.1-4.7,1-6.3
								c1.2-1.7,3.1-2.3,4.9-2.3c4.6,0.2,8.9,4.4,11.4,9.6C269.4,693.5,270.3,699.6,271,705.5"/>
						</g>
					</g>
					<g>
						<g>
							<path class="st6" d="M356.5,740c-23.2,2.7-47-3.1-67.7-14c-20.7-10.8-38.6-26.5-54.1-44c-47.3-53.2-73.9-124.3-73-195.5
								c11.6-1.6,23.3,1.9,34.2,6.2c41.4,16,78.4,43.2,106.1,77.9c27.7,34.7,46,76.8,52.5,120.7C356.4,703.5,359.1,727.8,356.5,740"
								/>
						</g>
						<g>
							<g>
								<path class="st5" d="M176.5,501.5c24.2,28.6,45.8,59.4,66.8,90.4c21,31.1,41.6,62.5,64,92.5c12.5,16.8,25.7,33.2,39.7,48.7
									c1.3,1.4,3.5-0.4,2.3-1.8c-25.1-27.8-47.2-58.1-68.4-89c-21.2-30.9-41.6-62.5-63.5-92.9c-12.2-17-25-33.7-38.5-49.7
									C177.6,498.2,175.3,500,176.5,501.5L176.5,501.5z"/>
							</g>
							<g>
								<path class="st5" d="M317.4,694.3c-12-2.7-23.7-6.2-35.2-10.5c-11.5-4.3-22.6-9.4-33.4-15.2c-6.1-3.3-12-6.9-17.9-10.6
									c-1.6-1-3.3,1.3-1.7,2.4c10.4,6.8,21.3,12.8,32.6,18.1c11.3,5.3,22.9,9.7,34.8,13.4c6.7,2.1,13.6,3.9,20.5,5.4
									c0.8,0.2,1.5-0.6,1.6-1.3C318.8,695.1,318.2,694.5,317.4,694.3L317.4,694.3z"/>
							</g>
							<g>
								<path class="st5" d="M294.6,661.2c1.9-11.6,1.5-23.6-0.2-35.2c-1.8-11.8-4.9-23.4-8.5-34.8c-2-6.5-4.2-12.9-6.4-19.3
									c-0.6-1.8-3.3-0.6-2.7,1.2c3.8,11.1,7.7,22.3,10.6,33.7c2.9,11.3,5.1,22.8,5.5,34.5c0.2,6.5-0.2,13.1-1.2,19.5
									C291.4,662.7,294.3,663.1,294.6,661.2L294.6,661.2z"/>
							</g>
							<g>
								<path class="st5" d="M256.2,606.6c-15.5-5.5-30.2-13-43.7-22.4c-3.8-2.6-7.5-5.4-11-8.3c-1.5-1.2-3.2,1.2-1.7,2.4
									c12.9,10.4,27.1,19.1,42.3,25.8c4.3,1.9,8.7,3.6,13.1,5.2C256.9,610,257.9,607.2,256.2,606.6L256.2,606.6z"/>
							</g>
							<g>
								<path class="st5" d="M230.8,567.7c-0.3-16.3-4.1-32.4-10.8-47.2c-1.9-4.2-4.1-8.2-6.4-12.1c-1-1.6-3.5-0.1-2.5,1.5
									c8.2,13.5,13.6,28.7,15.8,44.3c0.6,4.5,1,9,1.1,13.5C228,569.7,230.9,569.6,230.8,567.7L230.8,567.7z"/>
							</g>
						</g>
					</g>
				</g>
				<g>
					<g>
						<path class="st5" d="M315.3,853.5c-14.4,0-26-11.6-26-26l0,0c0-14.4,11.6-26,26-26h320.2c1.9,0,3.4-1.5,3.4-3.4V798
							c0-1.8-1.4-3.2-3.2-3.2h-325c-18.3,0-33.2,14.9-33.2,33.2l0,0c0,18.3,14.9,33.2,33.2,33.2h324.3c2.2,0,3.9-1.7,3.9-3.9v-0.2
							c0-2-1.6-3.6-3.6-3.6H315.3z"/>
						<path class="st9" d="M289.3,827.5L289.3,827.5c0,14.4,11.5,26,25.7,26h320.4l-0.5-1.8c-4.1-15.9-4.1-32.5,0-48.4l0.5-1.8H315
							C300.8,801.5,289.3,813.1,289.3,827.5z"/>
						<path class="st10" d="M296.8,832.7L296.8,832.7c0-14.4,11.5-26,25.7-26h311.6c0.2-1.1,0.5-2.2,0.8-3.4l0.5-1.8H315
							c-14.2,0-25.7,11.6-25.7,26l0,0c0,10.6,6.3,19.7,15.4,23.8C299.8,846.6,296.8,840,296.8,832.7z"/>
						<g>
							<rect x="386.3" y="821.3" class="st10" width="140" height="1.9"/>
						</g>
						<g>
							<rect x="474.3" y="839.6" class="st10" width="140" height="1.9"/>
						</g>
						<polygon class="st3" points="437.3,822.5 437.3,852.3 450.9,841.3 464.3,852 462.7,822.4 						"/>
					</g>
					<g>
						<path class="st5" d="M669.1,794.8H333.2c-5.2,0-9.4-4.2-9.4-9.4v-30.2c0-5.2,4.2-9.4,9.4-9.4h335.9c5.2,0,9.4,4.2,9.4,9.4
							v30.2C678.5,790.6,674.3,794.8,669.1,794.8z"/>
						<rect x="623.8" y="745.8" class="st11" width="5.8" height="49"/>
						<rect x="598" y="745.8" class="st11" width="5.8" height="49"/>
						<path d="M323.8,759.5v7l277.7-20.7H340.6C331.4,745.8,323.8,754.4,323.8,759.5z"/>
						<rect x="366.4" y="745.8" class="st11" width="5.8" height="49"/>
						<rect x="391.1" y="745.8" class="st11" width="5.8" height="49"/>
					</g>
					<g>
						<path class="st9" d="M342.9,712.1L342.9,712.1c0,14.4,10.7,26,24,26h298.6l-0.4-1.8c-3.8-15.9-3.8-32.5,0-48.4l0.4-1.8H366.9
							C353.7,686.1,342.9,697.7,342.9,712.1z"/>
						<g>
							<path class="st5" d="M367.1,738.1c-13.4,0-24.2-11.6-24.2-26l0,0c0-14.4,10.8-26,24.2-26h298.4c1.7,0,3.1-1.5,3.1-3.4v-0.1
								c0-1.8-1.3-3.2-3-3.2H362.8c-17.1,0-30.9,14.9-30.9,33.2l0,0c0,18.3,13.9,33.2,30.9,33.2h302.3c2,0,3.6-1.7,3.6-3.9v-0.2
								c0-2-1.5-3.6-3.4-3.6H367.1z"/>
							<path class="st10" d="M350,717.2L350,717.2c0-14.4,10.7-26,24-26h290.5c0.2-1.1,0.4-2.2,0.7-3.4l0.4-1.8H366.9
								c-13.3,0-24,11.6-24,26v0c0,10.6,5.9,19.7,14.3,23.8C352.7,731.1,350,724.5,350,717.2z"/>
							<g>
								<g>
									<rect x="388.1" y="705.9" class="st10" width="140" height="1.9"/>
								</g>
								<g>
									<rect x="476.1" y="724.2" class="st10" width="140" height="1.9"/>
								</g>
							</g>
						</g>
					</g>
					<g>
						<path class="st3" d="M595.7,540.6c12.5,0,22.6-10.1,22.6-22.6l0,0c0-12.5-10.1-22.6-22.6-22.6H317.2c-1.6,0-2.9-1.3-2.9-2.9
							v-0.1c0-1.5,1.3-2.8,2.8-2.8h282.7c16,0,28.9,12.9,28.9,28.9l0,0c0,16-12.9,28.9-28.9,28.9H317.7c-1.9,0-3.4-1.5-3.4-3.4v-0.2
							c0-1.7,1.4-3.2,3.2-3.2H595.7z"/>
						<path class="st9" d="M618.4,518L618.4,518c0,12.5-10,22.6-22.4,22.6H317.3l0.4-1.6c3.6-13.8,3.6-28.3,0-42.1l-0.4-1.6H596
							C608.3,495.4,618.4,505.5,618.4,518z"/>
						<path class="st10" d="M611.8,522.5L611.8,522.5c0-12.5-10-22.6-22.4-22.6H318.3c-0.2-1-0.4-2-0.7-2.9l-0.4-1.6H596
							c12.4,0,22.4,10.1,22.4,22.6l0,0c0,9.2-5.5,17.2-13.4,20.7C609.2,534.6,611.8,528.8,611.8,522.5z"/>
						<g>
							<rect x="412.2" y="512.6" class="st10" width="121.8" height="1.7"/>
						</g>
						<g>
							<rect x="446.3" y="527.7" class="st10" width="121.8" height="1.7"/>
						</g>
					</g>
					<g>
						<path class="st3" d="M651,679.3H315.2c-5.2,0-9.4-4.2-9.4-9.4v-46.5c0-5.2,4.2-9.4,9.4-9.4H651c5.2,0,9.4,4.2,9.4,9.4v46.5
							C660.4,675,656.2,679.3,651,679.3z"/>
						<rect x="605.7" y="613.9" class="st11" width="5.8" height="65.4"/>
						<rect x="579.9" y="613.9" class="st11" width="5.8" height="65.4"/>
						<path class="st12" d="M305.8,630.7v10.7l277.7-27.5H322.5C313.3,613.9,305.8,621.4,305.8,630.7z"/>
						<rect x="348.3" y="613.9" class="st11" width="5.8" height="65.4"/>
						<rect x="373" y="613.9" class="st11" width="5.8" height="65.4"/>
					</g>
					<g>
						<path class="st5" d="M319,606c-11.7,0-21.2-11.6-21.2-26v0c0-14.4,9.5-26,21.2-26h261c1.5,0,2.7-1.5,2.7-3.4v-0.1
							c0-1.8-1.2-3.2-2.6-3.2H315.2c-14.9,0-27.1,14.9-27.1,33.2l0,0c0,18.3,12.1,33.2,27.1,33.2h264.4c1.8,0,3.2-1.7,3.2-3.9v-0.2
							c0-2-1.3-3.6-3-3.6H319z"/>
						<path class="st9" d="M297.8,580L297.8,580c0,14.4,9.4,26,21,26H580l-0.4-1.8c-3.3-15.9-3.3-32.5,0-48.4l0.4-1.8H318.8
							C307.2,554,297.8,565.7,297.8,580z"/>
						<path class="st10" d="M304,585.2L304,585.2c0-14.4,9.4-26,21-26H579c0.2-1.1,0.4-2.2,0.6-3.4l0.4-1.8H318.8
							c-11.6,0-21,11.6-21,26v0c0,10.6,5.2,19.7,12.5,23.8C306.4,599.1,304,592.5,304,585.2z"/>
						<g>
							<rect x="376.9" y="573.8" class="st10" width="114.1" height="1.9"/>
						</g>
						<g>
							<rect x="448.6" y="592.1" class="st10" width="114.1" height="1.9"/>
						</g>
						<polygon class="st5" points="480,593.2 480,623 491.1,611.9 502,622.6 500.7,593 						"/>
					</g>
				</g>
			</g>
			<g>
				<g>
					<g>
						<g>
							<path class="st13" d="M544.6,232c-2.2,11.9-8.7,23-17.9,30.8c-0.3,0.3-0.7,0.6-0.7,1c-0.1,0.4,0.2,0.8,0.5,1.1
								c1.1,1.3,2.8,1.9,4.4,2.4c6.1,1.9,12.5,2.9,18.9,2.9c1.2,0,2.5-0.1,3.4-0.8c0.7-0.6,1-1.4,1.3-2.2c2.4-6.6,4.3-13.3,5.9-20.1
								c0.1-0.3,0.1-0.6,0.1-0.9c-0.1-0.6-0.7-1-1.2-1.3c-4-2.5-7.5-5.7-10.5-9.4"/>
						</g>
						<g>
							<path class="st14" d="M560.3,246.2c-0.1-0.6-0.7-1-1.2-1.3c-4-2.5-7.5-5.7-10.5-9.4l-4-3.4c-0.2,1.1-0.5,2.1-0.7,3.2
								c0.4,1,0.6,2.2,0.7,3.4c0.2,4.8,5.1,9.8,6.9,14.2c2.4,5.9,2.5,11.6,0.6,17.2c0.4-0.1,0.8-0.3,1.1-0.6c0.7-0.6,1-1.4,1.3-2.2
								c2.4-6.6,4.3-13.3,5.9-20.1C560.3,246.8,560.4,246.5,560.3,246.2z"/>
						</g>
					</g>
					<g>
						<g>
							<path class="st5" d="M592.9,264c-2.3-5.1-2.6-11.1-0.7-16.3c1-2.8,2.6-5.4,3-8.3c0.7-4.2-1.1-8.5-3.2-12.2
								c-2.1-3.8-4.5-7.4-5.3-11.7c-1.1-5.6,1-11.7,5.4-15.4l4.9,2.6c-2.1,6-1.6,12.9,1.4,18.5c1.6,3.1,3.9,5.9,4.7,9.2
								c1.4,5.7-1.5,11.5-4.5,16.5c-3,5-6.2,10.6-5.4,16.4"/>
						</g>
						<g>
							<path class="st13" d="M571.8,172.3c7.1,0.7,13.8,4.4,18.1,10.1c4.3,5.7,6.1,13.2,4.8,20.2c-0.7,3.5-2,6.9-2.6,10.4
								c-0.5,3.5-0.1,7.5,2.5,10.1c1,1,1.8,1.6,2.6,2.7s1.4,1.9,0.6,3c-1,1.5-3,1.9-4.4,3c-0.8,0.6-1.2,1.5-1.7,2.4
								c-3.7,7.6-8.4,14.7-13.9,21c-0.3,0.3-0.6,0.7-1,0.9c-0.6,0.2-1.4,0-2-0.3c-7.1-3-14.2-6-20.6-10.3c-6.4-4.3-12-10-15.1-17
								c-2.9-6.7-3.2-14.4-0.9-21.2"/>
						</g>
						<g>
							<path class="st15" d="M590.1,215.9c0,1.1-0.6,2-1.4,2c-0.8,0-1.4-0.9-1.4-2s0.6-2,1.4-2C589.4,213.8,590.1,214.7,590.1,215.9
								z"/>
							<path class="st16" d="M586.4,228.3c0,3.3-2.7,5.9-5.9,5.9c-3.3,0-5.9-2.7-5.9-5.9c0-3.3,2.7-5.9,5.9-5.9
								C583.7,222.4,586.4,225,586.4,228.3z"/>
							<path class="st17" d="M589.4,238.3l-7-1.4c0,0,3.1,3.3,4.8,3.8C588.9,241.1,589.4,238.3,589.4,238.3z"/>
						</g>
						<g>
							<g>
								<path class="st5" d="M532,185.4c-10,2.2-18.6-0.3-22.1-1.8c-3.5-1.5-6.7-4-8.4-7.4c-1.7-3.4-1.8-7.4-1-11
									c2.2-10.2,11.3-18.5,21.7-19.6c5.9-0.7,12.2,1,16.7,4.9s6.9,10.3,5.7,16.1"/>
							</g>
							<g>
								<path class="st5" d="M598.5,177.6c-3.9-4.9-16.3-16-33.4-16.4c-10.2-0.6-18.3,0.4-25.3,4.7c-7,4.3-10.9,10.4-15,17.5
									c-5,8.4-8.2,14-7.8,23.8c0.3,9.8,4.8,18.8,12.5,24.9c2.1,1.6,7.4,6,10.1,6.3c3.3,0.4,3.2,1.1,5.6-1.1
									c2.4-2.2,4.1-5.1,5.3-8.2c1.3-3.3,2.6-7.3,5.8-8.8c2.7-1.3,5.6-0.4,8.6,0.4c0,0.7,0,1.4,0,2.1c0.5,5.2,3,9.9,5,14.7
									c2,4.8,3.7,10.1,2.3,15.1c-0.9,3.4-3.1,6.4-4.7,9.6c-2.9,6.1-3.4,13.4-1.2,19.8l0.4-0.7c-0.3-7.1,4.3-13.4,8.5-19.1
									c4.2-5.7,8.6-12.3,7.5-19.3c-0.6-4.2-3-7.8-4.5-11.7c-1.4-3.6-2.1-7.6-1.9-11.5c0.5-0.2,0.9-0.5,1.4-0.7
									c7.9-4.1,15.7-9,20.5-16.4C602.9,195.1,604,184.6,598.5,177.6z"/>
							</g>
							<g>
								<path class="st7" d="M522.6,190.3c0,0-3,0,2.1-7c5.1-7,19.1-20.9,19.1-20.9s2.3-1.4-1.8,7.4S528.6,186.6,522.6,190.3z"/>
								<path class="st7" d="M544.5,162.7c0,0,1.9-0.9,4.9,3.2c2.9,4.1,6.7,13.5,6.7,13.5s0.4,1.5-3.7-2.3S545.5,166.6,544.5,162.7z
									"/>
								<path class="st7" d="M544.5,163.2c0,0,0-1.8,4-3.4c4-1.5,12.1-2.6,12.1-2.6s1.2,0-2.9,2.6
									C553.6,162.4,547.8,163.2,544.5,163.2z"/>
								<path class="st7" d="M547.3,163c0,1.6-1.3,2.8-2.8,2.8s-2.8-1.3-2.8-2.8s1.3-2.8,2.8-2.8S547.3,161.5,547.3,163z"/>
							</g>
						</g>
						<g>
							<g>
								<path class="st13" d="M560.5,219.9c1.2,2.8,1.2,9.8-1.7,10.5c-1.9,0.4-4-0.3-5.5-1.5c-1.5-1.3-2.6-3-3.4-4.8
									c-1-2.3-1.7-4.9-1.1-7.4c0.6-2.5,2.8-4.6,5.4-4.5c1.8,0.1,3.3,1.3,4.3,2.8C559.5,216.5,560,218.2,560.5,219.9"/>
							</g>
							<g>
								<path class="st14" d="M559.7,226.6c-7.5,0-10.7-6.7-9.7-12.4c-0.6,0.7-1,1.6-1.2,2.4c-0.6,2.5,0.1,5.1,1.1,7.4
									c0.8,1.8,1.9,3.6,3.4,4.8c1.5,1.3,3.6,2,5.5,1.5c1.3-0.3,2-1.9,2.3-3.9C560.6,226.6,560.2,226.6,559.7,226.6z"/>
							</g>
						</g>
					</g>
				</g>
				<g>
					<g>
						<path class="st13" d="M663.6,586.2c1.2,10.4,3.5,21.5-5.7,37.8c-1,1.8-2.5,3.4-2.7,5.5c-0.4,3.7,3.1,6.7,6.7,7.9
							c3.5,1.2,7.4,1.3,10.7,3c4,2.1,6.5,6,9.7,9.2c4.2,4.2,9.7,7.1,15.6,8.1c0.7,0.1,1.6,0.1,1.8-0.6c0.1-0.3,0-0.6-0.1-1
							c-1.5-3.7-5.3-5.9-7.9-9c-2.5-3.1-3.7-7-5.6-10.4c-1.6-2.8-4.2-8.1-5.4-11.1c-2-4.8-1.1-10,0-15.1c1.1-5.1,3.6-17.4,5.6-22.7"
							/>
					</g>
					<g>
						<path class="st5" d="M537.2,422.4c28.7-9.4,59-13.7,89.2-12.6c22.4,0.8,46.7,5.8,60.9,23.1c10.3,12.5,11.4,18.4,12.3,34.5
							c0.9,14.6-1.1,39.1-2.4,53.7c-2.2,24.8-2.7,50.6-8.3,74.8c-0.2,0.8-0.4,1.7-1,2.3c-0.6,0.6-1.4,0.9-2.3,1.1
							c-6.9,1.8-14.2,2-21.2,0.6c-1-0.2-2.1-0.5-2.8-1.2c-0.7-0.8-0.9-1.9-1.1-3c-2.3-17.2-4.2-43.9-5.7-61.2
							c-1.2-13.9-1-18.4-5.5-31.6c-1.2-3.5-2.6-7.1-5.2-9.8c-5.3-5.5-13.8-6-21.4-5.6c-25.8,1.3-51.8,7.9-77.1,2.6"/>
					</g>
					<g>
						<path class="st13" d="M630.3,486.8c-1.7,10.3-7.3,19.9-15.4,26.5c-1.6,1.3-3.4,2.6-4.2,4.6c-1.4,3.5,1.2,7.3,4.3,9.4
							c3.1,2.1,6.8,3.3,9.5,5.8c3.3,3.1,4.6,7.6,6.8,11.5c2.9,5.2,7.5,9.5,12.8,12c0.6,0.3,1.5,0.5,1.9-0.1c0.2-0.3,0.2-0.6,0.1-0.9
							c-0.4-4-3.5-7.1-5.1-10.8c-1.6-3.6-1.6-7.7-2.5-11.6c-0.7-3.1-1.8-8.9-2.1-12.1c-0.6-5.2,1.1-7.5,3.5-12.1
							c2.4-4.6,9-12.6,12.4-17.2"/>
					</g>
					<g>
						<path class="st5" d="M482.8,439c-1.2,12.1-1.6,26.2,5.7,36.2c10.6,14.8,32,17.4,50.2,18.4c18.2,0.9,36.4-0.7,52.1-9.8
							c15.7-9.1,29.4-21.4,42.3-34.3c18.8-18.7,36.2-38.6,53.2-58.9c-27.6,27.2-53.6,58.4-62.9,96c-0.2,0.8-0.4,1.6-0.1,2.4
							c0.3,1.1,1.4,1.7,2.4,2.2c7.7,4.2,15.4,8.3,23,12.5c1.1,0.6,2.2,1.2,3.4,1c1.4-0.2,2.5-1.4,3.4-2.5
							c12.4-14.8,23.5-30.6,34.3-46.7c15.6-23.3,30.8-48.3,32.7-76.3c0.5-7.1-0.2-14.9-5-20.2c-5.4-5.8-14.1-6.7-22-6.6
							c-32.2,0.3-66.9,20.6-95.6,35c-28.8,14.5-62.3,53-82.8,9.6"/>
					</g>
				</g>
				<g>
					<path class="st3" d="M717.8,301.4l39.8-51.6c1-1.3,3.2-0.7,3.3,1l3.2,38.6l-24.4,38.3L717.8,301.4z"/>
					<polygon class="st18" points="699,311.7 754.1,248.1 763,288.5 763,288.5 					"/>
					<polygon class="st2" points="692.9,311.7 721.5,259.6 764.3,289.5 					"/>
					<path class="st3" d="M667.4,334.5c7.2-11.7,32-51,38.9-61.8c1-1.6,3-2.3,4.9-1.7l53.2,18.4l-39.8,62.3
						c-0.6,0.9-1.7,1.4-2.8,1.1l-52.6-14.1C667.2,338.3,666.4,336.2,667.4,334.5z"/>
					<path class="st12" d="M763.1,289c-0.6,2.2-2,4.3-4.6,5.9c-6.9,4.1-11.8,11.6-18.2,16.7c-6.5,5.2-13.6,10-20.9,14
						c-14.9,8-33.6,12.3-50.4,13.2c0.1,0,0.1,0,0.2,0.1l52.6,14.1c1.1,0.3,2.2-0.2,2.8-1.1l39.8-62.3L763.1,289z"/>
				</g>
				<g>
					<g>
						<path class="st3" d="M533.3,255.4c-19.7,12.3-33.3,32.9-40.8,54.9c-7.5,22-9.4,45.5-9.9,68.8c-0.5,23.3,0.3,46.6-2,69.7
							c-0.2,1.6,0,3.7,1.6,4.1c1,0.3,2-0.5,2.8-1.1c23.3-19.1,53.4-27.3,80-41.3c1.6-0.8,3.2-1.7,4.1-3.2c0.6-1,0.9-2.1,1.1-3.2
							c1-4.2,2.1-8.4,3.1-12.7c4.5-18.5,9.1-37.1,9.8-56.2c0.7-19-3.6-33.9-13.9-49.9c-2-3-9.1-15.8-11.7-18.4
							C551.2,260.6,543.1,264.7,533.3,255.4"/>
					</g>
					<g>
						<g>
							<path class="st12" d="M573.7,286.5c-1.5,3.4-4.7,6.1-9,5.8c-15.9-1-33-1-49-3.4c-1.7,18.5,1.8,37.9,12.2,53.4
								c11.7,17.4,30,28.4,48.4,37.4c3.5-14.7,6.4-29.5,7-44.5C584,318.6,581.4,301.3,573.7,286.5z"/>
						</g>
						<g>
							<g>
								<path class="st13" d="M696.9,338.3c3,1.7,6.9,0.1,9.3-2.3c2.4-2.5,4-5.1,6.1-7.8c2.5-3.3,7.9-5.7,13-9.2
									c0.6-0.4,1.4,0.1,1.2,0.8c-0.8,3-5.4,8-6.2,10.8c-0.1,0.3-0.2,0.7,0.1,1c0.2,0.2,0.6,0.2,0.9,0.2c5.7-0.6,10-5.4,15.3-7.4
									c0.8-0.3,1.6-0.5,2.4-0.3c1.7,0.5,0.4,4,0,5.8c-0.9,3.6-3.8,7.7-6.6,10.1c-10.2,8.9-22.4,10.9-35.7,9"/>
							</g>
							<g>
								<g>
									<path class="st3" d="M516.7,277.6c7.3-5.3,16.8-5.6,25.5-4.1c16.7,2.9,32,11.8,45.9,22.1c13,9.6,25.3,20.6,39.4,28
										c18.9,10,40.4,13.3,61.4,12.7c4-0.1,8.2-0.3,11.8,1.7s6,7.1,3.9,10.9c-1.3,2.3-3.7,3.4-6,4.3
										c-16.7,6.9-33.4,13.7-50.8,17.7c-17.4,4-35.7,5-52.9,0.2c-23.7-6.7-43.7-23.9-61.5-42.4c-5.3-5.5-10.5-11.2-13.9-18.1
										C515.9,303.7,508.7,287.5,516.7,277.6"/>
								</g>
								<g>
									<g class="st1">
										<path class="st2" d="M542.3,293c3,0,3-4.7,0-4.7C539.2,288.3,539.2,293,542.3,293L542.3,293z"/>
									</g>
									<g class="st1">
										<path class="st2" d="M580.1,343.4c3,0,3-4.7,0-4.7C577.1,338.7,577.1,343.4,580.1,343.4L580.1,343.4z"/>
									</g>
									<g class="st1">
										<path class="st2" d="M585.3,306.3c3,0,3-4.7,0-4.7C582.2,301.6,582.2,306.3,585.3,306.3L585.3,306.3z"/>
									</g>
									<g class="st1">
										<path class="st2" d="M551.8,327.2c3,0,3-4.7,0-4.7C548.8,322.5,548.8,327.2,551.8,327.2L551.8,327.2z"/>
									</g>
									<g class="st1">
										<path class="st2" d="M624.2,340.4c3,0,3-4.7,0-4.7C621.2,335.7,621.2,340.4,624.2,340.4L624.2,340.4z"/>
									</g>
									<g class="st1">
										<path class="st2" d="M616.2,367.6c3,0,3-4.7,0-4.7C613.2,362.9,613.2,367.6,616.2,367.6L616.2,367.6z"/>
									</g>
									<g class="st1">
										<path class="st2" d="M670.2,350.7c3,0,3-4.7,0-4.7C667.1,346,667.1,350.7,670.2,350.7L670.2,350.7z"/>
									</g>
								</g>
							</g>
						</g>
					</g>
					<g>
						<g class="st1">
							<path class="st2" d="M559.9,398.5c3,0,3-4.7,0-4.7C556.9,393.8,556.9,398.5,559.9,398.5L559.9,398.5z"/>
						</g>
						<g class="st1">
							<path class="st2" d="M530.5,362.1c3,0,3-4.7,0-4.7C527.5,357.4,527.5,362.1,530.5,362.1L530.5,362.1z"/>
						</g>
						<g class="st1">
							<path class="st2" d="M522.4,409.5c3,0,3-4.7,0-4.7C519.4,404.8,519.4,409.5,522.4,409.5L522.4,409.5z"/>
						</g>
						<g class="st1">
							<path class="st2" d="M494.1,435.6c3,0,3-4.7,0-4.7C491.1,430.9,491.1,435.6,494.1,435.6L494.1,435.6z"/>
						</g>
						<g class="st1">
							<path class="st2" d="M495.2,377.2c3,0,3-4.7,0-4.7C492.2,372.5,492.2,377.2,495.2,377.2L495.2,377.2z"/>
						</g>
						<g class="st1">
							<path class="st2" d="M511.4,331.6c3,0,3-4.7,0-4.7C508.4,326.9,508.4,331.6,511.4,331.6L511.4,331.6z"/>
						</g>
						<g class="st1">
							<path class="st2" d="M511.4,296.3c3,0,3-4.7,0-4.7C508.4,291.6,508.4,296.3,511.4,296.3L511.4,296.3z"/>
						</g>
						<g class="st1">
							<path class="st2" d="M568.7,370.9c3,0,3-4.7,0-4.7C565.7,366.3,565.7,370.9,568.7,370.9L568.7,370.9z"/>
						</g>
						<g class="st1">
							<path class="st2" d="M489.7,340.4c3,0,3-4.7,0-4.7C486.7,335.7,486.7,340.4,489.7,340.4L489.7,340.4z"/>
						</g>
					</g>
				</g>
			</g>
		</g>
	</g>
</g>
</svg>
